<svg xmlns="http://www.w3.org/2000/svg" viewBox="0 0 511.999 511.999">
  <path d="M406.976 121.203h-8.74c-.523-15.702-1.625-31.339-3.323-46.696l-1.476-13.352H5.159L3.682 74.507C1.239 96.601 0 119.273 0 141.895c0 65.221 7.788 126.69 22.52 177.761 7.67 26.588 17.259 50.661 28.5 71.548 11.793 21.915 25.534 40.556 40.839 55.406l4.364 4.234h206.148l4.364-4.234c15.306-14.85 29.046-33.491 40.839-55.406 9.582-17.806 17.958-37.932 24.975-59.952h34.426c57.91 0 105.024-47.114 105.024-105.024 0-57.91-47.113-105.025-105.023-105.025zM290.044 420.844H108.55C58.558 368.479 30 267.368 30 141.895c0-16.987.733-33.999 2.185-50.739H366.41a589.123 589.123 0 012.185 50.739c0 125.473-28.558 226.584-78.551 278.949zm105.499-209.641h11.433c8.284 0 15.024 6.74 15.024 15.024s-6.74 15.024-15.024 15.024h-14.794a685.585 685.585 0 003.361-30.048zm11.433 90.049h-26.007a538.215 538.215 0 006.426-30h19.581c24.826 0 45.024-20.198 45.024-45.024 0-24.827-20.198-45.024-45.024-45.024h-9.348c.489-9.885.792-19.893.908-30h8.44c41.368 0 75.024 33.656 75.024 75.024s-33.656 75.024-75.024 75.024z"/>
</svg>