<svg id="Capa_1" enable-background="new 0 0 512 512" height="512" viewBox="0 0 512 512" width="512" xmlns="http://www.w3.org/2000/svg"><g><path d="m406 0h-300c-4.14 0-8.096 1.711-10.931 4.728s-4.297 7.072-4.04 11.204c.007.111 27.496 441.776 30 482 .492 7.907 7.049 14.068 14.971 14.068h240c7.922 0 14.479-6.161 14.971-14.068.373-5.982 29.839-479.415 30-482 .257-4.132-1.205-8.187-4.04-11.204s-6.791-4.728-10.931-4.728zm-15.962 30-7.531 121h-8.818c-35.424 0-70.895-8.374-102.579-24.216l-16.803-8.401c-35.828-17.914-75.938-27.383-115.995-27.383h-12.552l-3.797-61zm-23.298 374.324c-8.502 11.124-21.6 17.676-35.74 17.676h-150c-14.14 0-27.238-6.552-35.739-17.676l-17.635-283.324h10.685c35.424 0 70.895 8.374 102.579 24.216l16.803 8.401c35.828 17.914 75.938 27.383 115.995 27.383h6.951zm-216.645 77.676-2.349-37.742c10.163 5.022 21.493 7.742 33.254 7.742h150c11.761 0 23.091-2.72 33.254-7.742l-2.349 37.742z"/></g></svg>