<svg id="Layer_1" enable-background="new 0 0 512 512" height="512" viewBox="0 0 512 512" width="512" xmlns="http://www.w3.org/2000/svg"><g><path d="m383.467 231.9c0-28.668-11.734-54.645-30.648-73.388 8.089-.224 14.582-6.836 14.582-14.979v-64.266c0-8.284-6.716-15-15-15h-49.267v-49.267c0-8.284-6.716-15-15-15h-64.267c-8.284 0-15 6.716-15 15v49.267h-49.267c-8.284 0-15 6.716-15 15v64.267c0 8.143 6.493 14.755 14.582 14.979-18.914 18.743-30.648 44.72-30.648 73.388v136.566c0 12.03 4.487 23.37 12.66 32.134-7.813 8.352-12.66 19.584-12.66 32.132v32.133c0 26.026 21.039 47.134 47.133 47.134h160.667c25.551 0 47.133-20.653 47.133-47.134v-32.133c0-12.522-4.844-23.766-12.667-32.133 8.175-8.763 12.667-20.106 12.667-32.134zm-144.6-201.9h34.267v34.267h-34.267zm-64.267 64.267h162.8v34.267h-162.8zm178.867 370.599c0 9.624-7.845 17.134-17.133 17.134h-160.667c-9.42 0-17.133-7.609-17.133-17.134v-32.133c0-9.676 7.893-17.134 17.133-17.134h160.667c9.314 0 17.133 7.544 17.133 17.134zm0-96.399c0 9.623-7.844 17.133-17.133 17.133h-160.667c-9.419 0-17.133-7.606-17.133-17.133v-136.567c0-40.455 32.912-73.367 73.367-73.367h48.2c40.455 0 73.367 32.912 73.367 73.367v136.567z"/><path d="m266.146 212.817c-5.737-5.268-14.554-5.268-20.291 0-1.51 1.387-36.988 34.435-36.988 75.316 0 25.989 21.144 47.133 47.133 47.133s47.133-21.144 47.133-47.133c0-40.881-35.477-73.929-36.987-75.316zm-10.146 92.45c-9.447 0-17.133-7.686-17.133-17.133 0-16.242 9.37-31.728 17.133-41.769 7.763 10.041 17.133 25.526 17.133 41.769 0 9.447-7.686 17.133-17.133 17.133z"/></g></svg>